<?xml version="1.0" encoding="utf-8"?>
<!-- Generator: Adobe Illustrator 21.0.0, SVG Export Plug-In . SVG Version: 6.00 Build 0)  -->
<svg version="1.1" id="Layer_1" xmlns="http://www.w3.org/2000/svg" xmlns:xlink="http://www.w3.org/1999/xlink" x="0px" y="0px"
	 viewBox="0 0 666 127.5" style="enable-background:new 0 0 666 127.5;" xml:space="preserve">
<style type="text/css">
	.st0{fill:#39B884;}
</style>
<g>
	<path class="st0" d="M418.9,43.3c-4,0-7.7,1.5-10.5,3.5l5.8-27.6l-18,2.4l-13.5,63.2c-0.5,2.2-0.7,4.3-0.7,6c0,0,0,0,0,0
		c-1.9,1.2-3.7,2-5.4,2c-4.9,0-6.1-1.9-6.1-4.6c0-1.1,0.2-2.4,0.5-3.8l8.7-41.3h-17.5l-0.7,3.2c-2.2-1.8-5.2-3-8.1-3
		c-20.7,0-29.2,18.2-31.3,36.4c-1.7-6.8-6.1-10.9-10.2-14.5c-4.1-3.6-7.7-6.7-7.7-12c0-3.7,2.4-5.9,6.4-5.9c4.2,0,4.8,2.7,4.8,4.3
		c0,2.4-1.3,5-3.1,6l-1.3,0.8l1,1.1c1.2,1.4,2.9,2.2,4.7,2.2c4.8,0,8.1-4,8.1-9.6c0-5.1-2.6-11.2-15.2-11.2
		c-6.1,0-12.5,2.6-16.6,6.8c-1.4-2.3-3.9-3.7-7.5-3.7c-5.1,0-10,2.7-14.3,6.1l1.3-6.1h-17.5l-3,14.3c-2.1,1.4-4.3,2.7-7.5,2.7
		c-1.7,0-2.8-0.4-3.5-1.1C240.9,50.9,238,42,226.4,42c-16.8,0-32,12.9-32,42.8c0,1.9,0.1,3.7,0.3,5.3c-2.3,1.6-4.6,2.8-6.6,2.8
		c-4.7,0-6.1-1.8-6.1-4.5c0-1.2,0.4-2.6,0.6-3.9l13.9-65.6l-18,2.4l-5.3,25c-2.2-1.8-5.2-3-8.1-3c-24.3,0-31.8,25-31.8,45.9
		c0,0.9,0.1,1.8,0.2,2.7c-1.4,1-2.8,1.7-4.7,1.7c-4.7,0-6.1-1.8-6.1-4.5c0-1.2,0.2-2.6,0.6-3.9l5-23.2c0.2-1,0.2-1.9,0.2-2.9
		c0-8.1-7.4-15.2-14-15.2c-5.3,0-10.9,2.9-15.9,6.6l1.5-6.6H82.6l-7.6,36h-0.1c-4.3,9-14.5,16-20.4,16c-4.7,0-10-2.4-10-10.5
		c0-1.5,0.1-3.3,0.4-5.2c11.5-1.5,27.5-10,27.5-24.8c0-8.5-5.6-12.6-15.6-12.6c-22.1,0-28.7,27.1-28.7,42.5c0,10.5,6.3,19.3,18,19.3
		c10.9,0,19.7-5.9,26.5-13.7l-2.9,13.7h17.5l10.3-49.1c2.5-1.7,4.7-2.6,7.7-2.6c3.3,0,5.6,2.8,5.6,7.2c0,1-0.1,2.1-0.4,3.2
		l-4.6,21.9c-0.5,2.3-0.7,4.3-0.7,6.2c0,9.1,5.6,13.3,15.1,13.3c5.1,0,10.1-3.8,14.6-8.2c1.9,4.5,5.9,8.2,13.7,8.2
		c7.4,0,12.9-5,16.5-10c1.6,6.3,6.8,9.2,14.7,9.2c4.9,0,10.8-4.3,16.3-9.2c2.4,7,7.8,9.9,17.2,9.9c12.2,0,25.4-12,27.7-36.5
		c3.7-1,7.2-2.6,10.2-4.6l-8.7,41.1h17.5L269.9,57c2.8-2.6,4.7-3.9,8.4-3.9c3.6,0,0.2,8,7,8c1.5,0,2.9-0.4,4-0.9
		c1,4.9,4.5,8.5,8.1,11.9c4.6,4.4,9.3,9,9.3,16.7c0,2.5-0.6,10.6-7.8,10.6c-2.6,0-6.9-1.4-6.9-6.7c0-5.1,2.5-7.3,8.5-7.8l1.4-0.1
		l-0.3-1.4c-0.8-3.5-3.4-5.2-8-5.2c-6.5,0-13.5,4.1-13.5,13.2c0,9.4,7,14.6,19.6,14.6c11.3,0,19.3-5.2,22.1-13.7
		c0.9,6.3,4.8,12.4,14.8,12.4c7.4,0,12.9-5,16.5-10c1.6,6.3,6.9,9.2,14.8,9.2c4.5,0,9.9-3.6,14.9-8c2.3,6.4,9.4,8.7,19.1,8.7
		c21.8,0,32.2-26.9,32.2-45.9C434.4,51.6,430.6,43.3,418.9,43.3z M60.8,49.3c3.6,0,4.3,4.3,4.3,6.8c-0.1,8.6-8,18.2-19.2,18.4
		C48.4,63,54,49.3,60.8,49.3z M165.3,84.5c-0.4,1.5-0.6,2.8-0.7,4c-2.3,3.4-5,6.1-7.8,6.1c-3,0-7-1.3-7-8.6
		c0-16.5,7.3-35.9,16.4-35.9c1.7,0,4,0.5,6,2.2L165.3,84.5z M231.8,69.4c-1.5,11.8-5.6,23.5-13,23.5c-4.7,0-8.1-1.9-8.1-9.2
		c0-9.7,4.9-34.5,16.3-34.5c3.4,0,4.7,2.3,5.1,6.3c-3.3,1.2-5.3,5-5.3,8.5C226.7,66.9,228.3,69.4,231.8,69.4z M353.6,84.5
		c-0.4,1.5-0.6,2.8-0.7,4c-2.3,3.4-5,6.1-7.8,6.1c-3,0-7-1.3-7-8.6c0-16.5,7.3-35.9,16.4-35.9c1.7,0,4,0.5,6,2.2L353.6,84.5z
		 M404.7,96c-3.6,0-5.3-0.9-5.3-4.5c0-1.6,0.4-3.8,1-6.7l6.9-32.6c1.1-0.9,5.3-1.7,6.6-1.7c3,0,6.9,1.7,6.9,9
		C420.8,68.3,414.7,96,404.7,96z"/>
	<path class="st0" d="M512.5,55.4c0-8.5-5.6-12.6-15.6-12.6c-22.1,0-28.7,27.1-28.7,42.5c0,1.2,0.1,2.5,0.3,3.6
		c-3.1,2.5-6.2,4.6-8.9,4.6c-4.7,0-6.1-1.8-6.1-4.5c0-1,0.2-2.1,0.6-3.9l14-65.6l-18,2.4l-13.5,63.2c-0.5,2.3-0.7,4.4-0.7,6.2
		c0,9.1,5.7,13.3,15.1,13.3c5.6,0,12.7-5.6,18.7-11.4c2.4,6.6,8.1,11.4,16.6,11.4c12.2,0,22.7-3.4,22.7-16.5
		c-5,4.5-9.8,7.8-15.6,7.8c-4.7,0-8.8-2.4-8.8-10.5c0-1.5,0.1-3.3,0.4-5.2C496.5,78.8,512.5,70.3,512.5,55.4z M500.9,49.3
		c3.6,0,4.3,4.3,4.3,6.8c-0.1,8.6-8,18.2-19.2,18.4C488.5,63,494.1,49.3,500.9,49.3z"/>
	<path class="st0" d="M528,85.3c-5.3,0-9.6,4.4-9.6,9.7c0,5.3,4.3,9.6,9.6,9.6c5.3,0,9.7-4.3,9.7-9.6
		C537.8,89.7,533.4,85.3,528,85.3z"/>
	<path class="st0" d="M631.6,65.2c-4.1-3.6-7.7-6.7-7.7-12c0-3.7,2.4-5.9,6.4-5.9c4.2,0,4.8,2.7,4.8,4.3c0,2.4-1.3,5-3.1,6l-1.3,0.8
		l1,1.1c1.2,1.4,2.9,2.2,4.7,2.2c4.8,0,8.1-4,8.1-9.6c0-5.1-2.6-11.2-15.2-11.2c-9.9,0-21,6.8-21,16.7c0,6.4,4.3,10.6,8.6,14.6
		c4.6,4.4,9.3,9,9.3,16.7c0,2.5-0.6,10.6-7.8,10.6c-2.6,0-6.9-1.4-6.9-6.7c0-5.1,2.5-7.3,8.5-7.8l1.4-0.1l-0.3-1.4
		c-0.8-3.5-3.4-5.2-8-5.2c-6.5,0-13.5,4.1-13.5,13.2c0,0.9,0.1,1.7,0.2,2.5c-0.3,0-0.6,0-0.9,0c-3.4,0-4.4-1.9-4.4-4.5
		c0-1.3,0.2-2.7,0.6-4.1l8.7-41.3h-17.4L578,85.2c-0.4,1.5-0.6,2.8-0.6,4c-3,2.4-6.1,4.4-8.6,4.4c-4.7,0-6.1-1.8-6.1-4.5
		c0-1.2,0.2-2.6,0.6-3.9l8.9-41.3h-17.9l-8.5,41.3c-0.5,2.3-0.7,4.3-0.7,6.2c0,9.1,5.6,13.3,15.1,13.3c5.2,0,11.7-4.9,17.4-10.2
		c1,6.1,4.6,10.2,12.2,10.2c3.6,0,7.9-0.6,11.2-7.6c2.4,5.8,8.7,8.9,18.5,8.9c14.1,0,23.2-8,23.2-20.5
		C642.6,74.8,636.8,69.7,631.6,65.2z"/>
</g>
</svg>
