<?xml version="1.0" encoding="UTF-8" standalone="no"?>
<!-- Generator: Adobe Illustrator 21.0.0, SVG Export Plug-In . SVG Version: 6.00 Build 0)  -->

<svg
   xmlns:dc="http://purl.org/dc/elements/1.1/"
   xmlns:cc="http://creativecommons.org/ns#"
   xmlns:rdf="http://www.w3.org/1999/02/22-rdf-syntax-ns#"
   xmlns:svg="http://www.w3.org/2000/svg"
   xmlns="http://www.w3.org/2000/svg"
   xmlns:sodipodi="http://sodipodi.sourceforge.net/DTD/sodipodi-0.dtd"
   xmlns:inkscape="http://www.inkscape.org/namespaces/inkscape"
   version="1.1"
   id="Layer_1"
   x="0px"
   y="0px"
   viewBox="0 0 222.455 39.999649"
   xml:space="preserve"
   inkscape:version="0.91 r13725"
   sodipodi:docname="logo.svg"
   width="222.455"
   height="39.999649"><metadata
     id="metadata19"><rdf:RDF><cc:Work
         rdf:about=""><dc:format>image/svg+xml</dc:format><dc:type
           rdf:resource="http://purl.org/dc/dcmitype/StillImage" /><dc:title></dc:title></cc:Work></rdf:RDF></metadata><defs
     id="defs17" /><sodipodi:namedview
     pagecolor="#ffffff"
     bordercolor="#666666"
     borderopacity="1"
     objecttolerance="10"
     gridtolerance="10"
     guidetolerance="10"
     inkscape:pageopacity="0"
     inkscape:pageshadow="2"
     inkscape:window-width="1863"
     inkscape:window-height="1056"
     id="namedview15"
     showgrid="false"
     inkscape:zoom="1.7897898"
     inkscape:cx="215.86535"
     inkscape:cy="-13.031964"
     inkscape:window-x="57"
     inkscape:window-y="24"
     inkscape:window-maximized="1"
     inkscape:current-layer="Layer_1"
     fit-margin-top="0"
     fit-margin-left="0"
     fit-margin-right="0"
     fit-margin-bottom="0" /><style
     type="text/css"
     id="style3">
	.st0{fill:#39B884;}
</style><g
     id="g5"
     inkscape:export-xdpi="90"
     inkscape:export-ydpi="90"
     transform="matrix(0.45923823,0,0,0.45923823,-12.904594,-8.6796025)"><path
       class="st0"
       d="m 418.9,43.3 c -4,0 -7.7,1.5 -10.5,3.5 l 5.8,-27.6 -18,2.4 -13.5,63.2 c -0.5,2.2 -0.7,4.3 -0.7,6 l 0,0 c -1.9,1.2 -3.7,2 -5.4,2 -4.9,0 -6.1,-1.9 -6.1,-4.6 0,-1.1 0.2,-2.4 0.5,-3.8 l 8.7,-41.3 -17.5,0 -0.7,3.2 c -2.2,-1.8 -5.2,-3 -8.1,-3 -20.7,0 -29.2,18.2 -31.3,36.4 -1.7,-6.8 -6.1,-10.9 -10.2,-14.5 -4.1,-3.6 -7.7,-6.7 -7.7,-12 0,-3.7 2.4,-5.9 6.4,-5.9 4.2,0 4.8,2.7 4.8,4.3 0,2.4 -1.3,5 -3.1,6 l -1.3,0.8 1,1.1 c 1.2,1.4 2.9,2.2 4.7,2.2 4.8,0 8.1,-4 8.1,-9.6 0,-5.1 -2.6,-11.2 -15.2,-11.2 -6.1,0 -12.5,2.6 -16.6,6.8 -1.4,-2.3 -3.9,-3.7 -7.5,-3.7 -5.1,0 -10,2.7 -14.3,6.1 l 1.3,-6.1 -17.5,0 -3,14.3 c -2.1,1.4 -4.3,2.7 -7.5,2.7 -1.7,0 -2.8,-0.4 -3.5,-1.1 -0.1,-9 -3,-17.9 -14.6,-17.9 -16.8,0 -32,12.9 -32,42.8 0,1.9 0.1,3.7 0.3,5.3 -2.3,1.6 -4.6,2.8 -6.6,2.8 -4.7,0 -6.1,-1.8 -6.1,-4.5 0,-1.2 0.4,-2.6 0.6,-3.9 l 13.9,-65.6 -18,2.4 -5.3,25 c -2.2,-1.8 -5.2,-3 -8.1,-3 -24.3,0 -31.8,25 -31.8,45.9 0,0.9 0.1,1.8 0.2,2.7 -1.4,1 -2.8,1.7 -4.7,1.7 -4.7,0 -6.1,-1.8 -6.1,-4.5 0,-1.2 0.2,-2.6 0.6,-3.9 l 5,-23.2 c 0.2,-1 0.2,-1.9 0.2,-2.9 0,-8.1 -7.4,-15.2 -14,-15.2 -5.3,0 -10.9,2.9 -15.9,6.6 l 1.5,-6.6 -17.5,0 -7.6,36 -0.1,0 c -4.3,9 -14.5,16 -20.4,16 -4.7,0 -10,-2.4 -10,-10.5 0,-1.5 0.1,-3.3 0.4,-5.2 11.5,-1.5 27.5,-10 27.5,-24.8 0,-8.5 -5.6,-12.6 -15.6,-12.6 -22.1,0 -28.7,27.1 -28.7,42.5 0,10.5 6.3,19.3 18,19.3 10.9,0 19.7,-5.9 26.5,-13.7 l -2.9,13.7 17.5,0 10.3,-49.1 c 2.5,-1.7 4.7,-2.6 7.7,-2.6 3.3,0 5.6,2.8 5.6,7.2 0,1 -0.1,2.1 -0.4,3.2 l -4.6,21.9 c -0.5,2.3 -0.7,4.3 -0.7,6.2 0,9.1 5.6,13.3 15.1,13.3 5.1,0 10.1,-3.8 14.6,-8.2 1.9,4.5 5.9,8.2 13.7,8.2 7.4,0 12.9,-5 16.5,-10 1.6,6.3 6.8,9.2 14.7,9.2 4.9,0 10.8,-4.3 16.3,-9.2 2.4,7 7.8,9.9 17.2,9.9 12.2,0 25.4,-12 27.7,-36.5 3.7,-1 7.2,-2.6 10.2,-4.6 l -8.7,41.1 17.5,0 10,-47.6 c 2.8,-2.6 4.7,-3.9 8.4,-3.9 3.6,0 0.2,8 7,8 1.5,0 2.9,-0.4 4,-0.9 1,4.9 4.5,8.5 8.1,11.9 4.6,4.4 9.3,9 9.3,16.7 0,2.5 -0.6,10.6 -7.8,10.6 -2.6,0 -6.9,-1.4 -6.9,-6.7 0,-5.1 2.5,-7.3 8.5,-7.8 l 1.4,-0.1 -0.3,-1.4 c -0.8,-3.5 -3.4,-5.2 -8,-5.2 -6.5,0 -13.5,4.1 -13.5,13.2 0,9.4 7,14.6 19.6,14.6 11.3,0 19.3,-5.2 22.1,-13.7 0.9,6.3 4.8,12.4 14.8,12.4 7.4,0 12.9,-5 16.5,-10 1.6,6.3 6.9,9.2 14.8,9.2 4.5,0 9.9,-3.6 14.9,-8 2.3,6.4 9.4,8.7 19.1,8.7 21.8,0 32.2,-26.9 32.2,-45.9 0.3,-7.1 -3.5,-15.4 -15.2,-15.4 z m -358.1,6 c 3.6,0 4.3,4.3 4.3,6.8 C 65,64.7 57.1,74.3 45.9,74.5 48.4,63 54,49.3 60.8,49.3 Z m 104.5,35.2 c -0.4,1.5 -0.6,2.8 -0.7,4 -2.3,3.4 -5,6.1 -7.8,6.1 -3,0 -7,-1.3 -7,-8.6 0,-16.5 7.3,-35.9 16.4,-35.9 1.7,0 4,0.5 6,2.2 z m 66.5,-15.1 c -1.5,11.8 -5.6,23.5 -13,23.5 -4.7,0 -8.1,-1.9 -8.1,-9.2 0,-9.7 4.9,-34.5 16.3,-34.5 3.4,0 4.7,2.3 5.1,6.3 0.515,3.837941 0.44453,8.064632 -0.3,13.9 z m 121.8,15.1 c -0.4,1.5 -0.6,2.8 -0.7,4 -2.3,3.4 -5,6.1 -7.8,6.1 -3,0 -7,-1.3 -7,-8.6 0,-16.5 7.3,-35.9 16.4,-35.9 1.7,0 4,0.5 6,2.2 z M 404.7,96 c -3.6,0 -5.3,-0.9 -5.3,-4.5 0,-1.6 0.4,-3.8 1,-6.7 l 6.9,-32.6 c 1.1,-0.9 5.3,-1.7 6.6,-1.7 3,0 6.9,1.7 6.9,9 0,8.8 -6.1,36.5 -16.1,36.5 z"
       id="path7"
       inkscape:connector-curvature="0"
       style="fill:#39b884"
       sodipodi:nodetypes="sccccccssccccscsssscccssscsccccscsscssccccsscssccsscccccsscssssccccssccsscscscscccccssccssscccssscscscscssccsccssscccsssccccsssccssccsss" /><path
       class="st0"
       d="m 512.5,55.4 c 0,-8.5 -5.6,-12.6 -15.6,-12.6 -22.1,0 -28.7,27.1 -28.7,42.5 0,1.2 0.1,2.5 0.3,3.6 -3.1,2.5 -6.2,4.6 -8.9,4.6 -4.7,0 -6.1,-1.8 -6.1,-4.5 0,-1 0.2,-2.1 0.6,-3.9 l 14,-65.6 -18,2.4 -13.5,63.2 c -0.5,2.3 -0.7,4.4 -0.7,6.2 0,9.1 5.7,13.3 15.1,13.3 5.6,0 12.7,-5.6 18.7,-11.4 2.4,6.6 8.1,11.4 16.6,11.4 12.2,0 22.7,-3.4 22.7,-16.5 -5,4.5 -9.8,7.8 -15.6,7.8 -4.7,0 -8.8,-2.4 -8.8,-10.5 0,-1.5 0.1,-3.3 0.4,-5.2 11.5,-1.4 27.5,-9.9 27.5,-24.8 z m -11.6,-6.1 c 3.6,0 4.3,4.3 4.3,6.8 -0.1,8.6 -8,18.2 -19.2,18.4 2.5,-11.5 8.1,-25.2 14.9,-25.2 z"
       id="path9"
       inkscape:connector-curvature="0"
       style="fill:#39b884" /></g></svg>